<svg width="411" height="472" viewBox="0 0 411 472" fill="none" xmlns="http://www.w3.org/2000/svg">
<path fill-rule="evenodd" clip-rule="evenodd" d="M207.879 -192.371C278.928 -187.211 338.217 -144.449 390.273 -100.025C437.034 -60.1212 471.186 -10.337 487.414 46.1766C502.931 100.215 491.837 154.839 479.15 209.488C464.868 271.01 460.539 340.011 409.413 382.18C356.394 425.909 279.207 437.301 207.879 433.231C139.443 429.327 79.1356 397.21 23.8599 360.182C-31.1578 323.327 -81.1031 280.05 -106.879 222.382C-134.047 161.598 -143.14 93.9625 -123.339 30.8524C-103.092 -33.6797 -56.072 -88.2637 3.09937 -128.142C62.6171 -168.254 134.122 -197.727 207.879 -192.371Z" fill="#40AB1A"/>
<path fill-rule="evenodd" clip-rule="evenodd" d="M213.879 -154.371C284.928 -149.211 344.217 -106.449 396.273 -62.0253C443.034 -22.1212 477.186 27.663 493.414 84.1766C508.931 138.215 497.837 192.839 485.15 247.488C470.868 309.01 466.539 378.011 415.413 420.18C362.394 463.909 285.207 475.301 213.879 471.231C145.443 467.327 85.1356 435.21 29.8599 398.182C-25.1578 361.327 -75.1031 318.05 -100.879 260.382C-128.047 199.598 -137.14 131.962 -117.339 68.8524C-97.0923 4.3203 -50.072 -50.2637 9.09937 -90.1419C68.6171 -130.254 140.122 -159.727 213.879 -154.371Z" fill="#40AB1A" fill-opacity="0.65"/>
</svg>
