<svg width="411" height="448" viewBox="0 0 411 448" fill="none" xmlns="http://www.w3.org/2000/svg">
<path fill-rule="evenodd" clip-rule="evenodd" d="M104.927 -260.991C205.276 -261.261 315.5 -256.136 378.867 -178.324C442.755 -99.8706 430.902 10.7862 406.136 108.885C382.246 203.511 334.196 291.561 248.465 338.195C157.337 387.765 44.5746 404.32 -46.8413 355.285C-134.768 308.122 -162.182 203.444 -184.188 106.124C-206.114 9.15408 -228.677 -98.7454 -167.166 -176.851C-105.37 -255.32 5.04626 -260.721 104.927 -260.991Z" fill="#40AB1A"/>
<path fill-rule="evenodd" clip-rule="evenodd" d="M104.927 -197.991C205.276 -198.261 315.5 -193.136 378.867 -115.324C442.755 -36.8706 430.902 73.7862 406.136 171.885C382.246 266.511 334.196 354.561 248.465 401.195C157.337 450.765 44.5746 467.32 -46.8413 418.285C-134.768 371.122 -162.182 266.444 -184.188 169.124C-206.114 72.1541 -228.677 -35.7454 -167.166 -113.851C-105.37 -192.32 5.04626 -197.721 104.927 -197.991Z" fill="#40AB1A" fill-opacity="0.65"/>
</svg>
