<svg width="24" height="24" viewBox="0 0 24 24" fill="none" xmlns="http://www.w3.org/2000/svg">
<path d="M16.5 10.5C15.4457 10.5004 14.4105 10.7807 13.5 11.3122V6.75C13.5 5.35761 12.9469 4.02226 11.9623 3.03769C10.9777 2.05312 9.64239 1.5 8.25 1.5C6.85761 1.5 5.52226 2.05312 4.53769 3.03769C3.55312 4.02226 3 5.35761 3 6.75V17.25C2.99973 18.32 3.32647 19.3646 3.93644 20.2437C4.54641 21.1228 5.41047 21.7945 6.41287 22.1689C7.41527 22.5432 8.50813 22.6023 9.54503 22.3381C10.5819 22.074 11.5133 21.4993 12.2145 20.691C12.9062 21.3983 13.762 21.9236 14.7059 22.22C15.6497 22.5164 16.6523 22.5747 17.6241 22.3897C18.596 22.2048 19.507 21.7823 20.276 21.1599C21.045 20.5376 21.6481 19.7347 22.0316 18.8227C22.4151 17.9108 22.5671 16.9181 22.4739 15.9332C22.3808 14.9483 22.0455 14.0017 21.4979 13.1778C20.9503 12.3539 20.2074 11.6782 19.3354 11.211C18.4634 10.7438 17.4893 10.4995 16.5 10.5V10.5ZM16.5 12C17.5625 12.0018 18.5901 12.3792 19.4012 13.0654C20.2123 13.7516 20.7547 14.7025 20.9325 15.75H12.0675C12.2453 14.7025 12.7877 13.7516 13.5988 13.0654C14.4099 12.3792 15.4375 12.0018 16.5 12V12ZM4.5 6.75C4.5 5.75544 4.89509 4.80161 5.59835 4.09835C6.30161 3.39509 7.25544 3 8.25 3C9.24456 3 10.1984 3.39509 10.9017 4.09835C11.6049 4.80161 12 5.75544 12 6.75V11.25H4.5V6.75ZM8.25 21C7.2558 20.9988 6.30267 20.6033 5.59967 19.9003C4.89666 19.1973 4.50119 18.2442 4.5 17.25V12.75H11.8238C11.071 13.6828 10.6166 14.8207 10.5198 16.0154C10.4229 17.2102 10.6881 18.4064 11.2808 19.4482C10.9343 19.9282 10.479 20.3191 9.95211 20.5888C9.42524 20.8586 8.8419 20.9995 8.25 21V21ZM16.5 21C15.4375 20.9982 14.4099 20.6208 13.5988 19.9346C12.7877 19.2484 12.2453 18.2975 12.0675 17.25H20.9325C20.7547 18.2975 20.2123 19.2484 19.4012 19.9346C18.5901 20.6208 17.5625 20.9982 16.5 21V21Z" fill="black" fill-opacity="0.45"/>
</svg>
