<svg width="24" height="24" viewBox="0 0 24 24" fill="none" xmlns="http://www.w3.org/2000/svg">
<path d="M9.79647 9.60899V9.60925C9.79656 9.69655 9.76202 9.78032 9.70042 9.84217C9.63888 9.90397 9.55537 9.93885 9.46817 9.93919C9.46808 9.93919 9.46799 9.93919 9.4679 9.93919L2.72047 9.93919C2.54096 9.93919 2.39267 9.79173 2.39267 9.60899V2.86079C2.39267 2.77376 2.42723 2.69028 2.48874 2.6287C2.55023 2.56715 2.63363 2.53251 2.72063 2.53239H9.46851C9.55551 2.53251 9.63892 2.56715 9.70041 2.6287C9.76192 2.69028 9.79647 2.77376 9.79647 2.86079V9.60899ZM2.72047 10.9708H9.46867C10.2191 10.9708 10.8287 10.3599 10.8287 9.60899V2.86079C10.8287 2.11072 10.2187 1.50079 9.46867 1.50079H2.72047C1.9704 1.50079 1.36047 2.11072 1.36047 2.86079V9.60839C1.36047 10.3598 1.96996 10.9708 2.72047 10.9708Z" fill="#40AB1A" stroke="#40AB1A" stroke-width="0.5"/>
<path d="M21.2814 10.9708L21.2822 10.9708C21.6426 10.9696 21.9879 10.8256 22.2423 10.5704C22.4967 10.3151 22.6396 9.9694 22.6396 9.60899V2.86079C22.6396 2.50048 22.4966 2.15489 22.2421 1.89991C21.9875 1.64492 21.6421 1.50138 21.2818 1.50079H21.2814H14.5314C13.7812 1.50079 13.172 2.1109 13.172 2.86079V9.60831C13.172 9.60834 13.172 9.60837 13.172 9.60839C13.1718 9.96913 13.3148 10.3152 13.5696 10.5706C13.8243 10.8261 14.1701 10.97 14.5309 10.9708H14.5314L21.2814 10.9708ZM21.6074 2.86027V2.86079V9.60899C21.6074 9.787 21.4537 9.93919 21.2814 9.93919H14.5314C14.3519 9.93919 14.2036 9.79173 14.2036 9.60899V2.86079C14.2036 2.77376 14.2382 2.69028 14.2997 2.6287C14.3612 2.56715 14.4446 2.53251 14.5316 2.53239H21.2811C21.324 2.53251 21.3665 2.54106 21.406 2.55756C21.4457 2.57408 21.4817 2.59826 21.5121 2.62871C21.5424 2.65915 21.5664 2.69527 21.5828 2.73501C21.5991 2.77474 21.6075 2.81731 21.6074 2.86027Z" fill="#40AB1A" stroke="#40AB1A" stroke-width="0.5"/>
<path d="M2.72047 22.4998H9.46867C10.2189 22.4998 10.8287 21.8891 10.8287 21.1392V14.3898C10.8287 13.6392 10.2188 13.0292 9.46867 13.0292H2.72047C1.97031 13.0292 1.36047 13.6392 1.36047 14.3898V21.1398C1.36047 21.8899 1.9704 22.4998 2.72047 22.4998ZM2.48891 14.1579C2.5504 14.0963 2.63377 14.0616 2.72077 14.0614H9.46851C9.55551 14.0615 9.63892 14.0962 9.70041 14.1577C9.76192 14.2193 9.79647 14.3028 9.79647 14.3898V21.1392C9.79647 21.2262 9.76192 21.3097 9.70041 21.3713C9.63889 21.4329 9.55545 21.4675 9.46841 21.4676H2.72047C2.54011 21.4676 2.39267 21.3205 2.39267 21.1392V14.39C2.39279 14.3029 2.4274 14.2195 2.48891 14.1579Z" fill="#40AB1A" stroke="#40AB1A" stroke-width="0.5"/>
<path d="M21.2814 22.4998L21.2821 22.4998C21.6423 22.4988 21.9875 22.3551 22.242 22.1001C22.4964 21.8451 22.6394 21.4996 22.6396 21.1393V21.1392V14.3898C22.6396 13.6396 22.0307 13.0292 21.2814 13.0292H14.5314C13.7811 13.0292 13.172 13.6394 13.172 14.3898V21.1398C13.172 21.8897 13.7812 22.4998 14.5314 22.4998L21.2814 22.4998ZM21.6074 14.3893V14.3898V21.1392C21.6074 21.3213 21.4603 21.4676 21.2814 21.4676H14.5314C14.351 21.4676 14.2036 21.3205 14.2036 21.1392V14.39C14.2037 14.3029 14.2383 14.2195 14.2998 14.1579C14.3613 14.0963 14.4447 14.0616 14.5317 14.0614H21.2811C21.324 14.0615 21.3665 14.0701 21.406 14.0866C21.4457 14.1031 21.4817 14.1273 21.5121 14.1577C21.5424 14.1882 21.5664 14.2243 21.5828 14.264C21.5991 14.3038 21.6075 14.3463 21.6074 14.3893Z" fill="#40AB1A" stroke="#40AB1A" stroke-width="0.5"/>
</svg>
