<svg width="24" height="24" viewBox="0 0 24 24" fill="none" xmlns="http://www.w3.org/2000/svg">
<path d="M9.46867 10.7208H2.72047C2.10847 10.7208 1.61047 10.2222 1.61047 9.60839V2.86079C1.61047 2.24879 2.10847 1.75079 2.72047 1.75079H9.46867C10.0807 1.75079 10.5787 2.24879 10.5787 2.86079V9.60899C10.5787 10.2222 10.0807 10.7208 9.46867 10.7208V10.7208ZM2.72047 2.28239C2.56718 2.28255 2.42021 2.34356 2.31187 2.45201C2.20353 2.56047 2.14267 2.7075 2.14267 2.86079V9.60899C2.14267 9.92879 2.40187 10.1892 2.72047 10.1892H9.46867C9.62218 10.1887 9.76924 10.1274 9.87756 10.0186C9.98588 9.90981 10.0466 9.7625 10.0465 9.60899V2.86079C10.0465 2.7075 9.98561 2.56047 9.87727 2.45201C9.76893 2.34356 9.62197 2.28255 9.46867 2.28239H2.72047Z" fill="black" fill-opacity="0.45"/>
<path d="M9.79647 9.60899L9.79647 9.60925C9.79656 9.69655 9.76202 9.78032 9.70042 9.84217C9.63893 9.90391 9.55551 9.93879 9.46839 9.93919H2.72047C2.54096 9.93919 2.39267 9.79173 2.39267 9.60899V2.86079C2.39267 2.77376 2.42723 2.69028 2.48874 2.6287C2.55023 2.56715 2.63363 2.53251 2.72063 2.53239H9.46851C9.55551 2.53251 9.63892 2.56715 9.70041 2.6287C9.76192 2.69028 9.79647 2.77376 9.79647 2.86079L9.79647 9.60899ZM2.72047 10.9708H9.46867C10.2191 10.9708 10.8287 10.3599 10.8287 9.60899V2.86079C10.8287 2.11072 10.2187 1.50079 9.46867 1.50079H2.72047C1.9704 1.50079 1.36047 2.11072 1.36047 2.86079V9.60839C1.36047 10.3598 1.96996 10.9708 2.72047 10.9708Z" stroke="black" stroke-opacity="0.45" stroke-width="0.5"/>
<path d="M21.2814 10.7208H14.5314C14.2368 10.7202 13.9546 10.6027 13.7466 10.3941C13.5386 10.1855 13.4218 9.90295 13.422 9.60839V2.86079C13.422 2.24879 13.9194 1.75079 14.5314 1.75079H21.2814C21.5755 1.75127 21.8574 1.86843 22.0651 2.07654C22.2729 2.28465 22.3896 2.56671 22.3896 2.86079V9.60899C22.3896 9.90324 22.273 10.1855 22.0652 10.3939C21.8575 10.6023 21.5757 10.7198 21.2814 10.7208V10.7208ZM14.5314 2.28239C14.3781 2.28255 14.2311 2.34356 14.1228 2.45201C14.0145 2.56047 13.9536 2.7075 13.9536 2.86079V9.60899C13.9536 9.92879 14.2128 10.1892 14.5314 10.1892H21.2814C21.5934 10.1892 21.8574 9.92339 21.8574 9.60899V2.86079C21.8576 2.78499 21.8428 2.70991 21.8139 2.63982C21.7851 2.56973 21.7427 2.50601 21.6892 2.4523C21.6357 2.39859 21.5722 2.35594 21.5022 2.32679C21.4322 2.29764 21.3572 2.28255 21.2814 2.28239H14.5314Z" fill="black" fill-opacity="0.45"/>
<path d="M14.5309 10.9708H14.5314H21.2814V10.7208L21.2822 10.9708C21.6426 10.9696 21.9879 10.8256 22.2423 10.5704C22.4967 10.3151 22.6396 9.9694 22.6396 9.60899V2.86079C22.6396 2.50048 22.4966 2.15489 22.2421 1.89991C21.9875 1.64492 21.6421 1.50138 21.2818 1.50079H21.2814H14.5314C13.7812 1.50079 13.172 2.1109 13.172 2.86079V9.60831C13.172 9.60834 13.172 9.60837 13.172 9.60839C13.1718 9.96913 13.3148 10.3152 13.5696 10.5706C13.8243 10.8261 14.1701 10.97 14.5309 10.9708ZM21.6074 2.86027V2.86079V9.60899C21.6074 9.787 21.4537 9.93919 21.2814 9.93919H14.5314C14.3519 9.93919 14.2036 9.79173 14.2036 9.60899V2.86079C14.2036 2.77376 14.2382 2.69028 14.2997 2.6287C14.3612 2.56715 14.4446 2.53251 14.5316 2.53239H21.2811C21.324 2.53251 21.3665 2.54106 21.4061 2.55756C21.4457 2.57409 21.4817 2.59826 21.5121 2.62871C21.5424 2.65915 21.5664 2.69527 21.5828 2.73501C21.5991 2.77474 21.6075 2.81731 21.6074 2.86027Z" stroke="black" stroke-opacity="0.45" stroke-width="0.5"/>
<path d="M9.46867 22.2498H2.72047C2.10847 22.2498 1.61047 21.7518 1.61047 21.1398V14.3898C1.61047 13.7772 2.10847 13.2792 2.72047 13.2792H9.46867C10.0807 13.2792 10.5787 13.7772 10.5787 14.3898V21.1392C10.5787 21.7512 10.0807 22.2498 9.46867 22.2498ZM2.72047 13.8114C2.56722 13.8117 2.42035 13.8728 2.31205 13.9812C2.20374 14.0896 2.14283 14.2366 2.14267 14.3898V21.1392C2.14267 21.4584 2.40187 21.7176 2.72047 21.7176H9.46867C9.62197 21.7174 9.76893 21.6564 9.87727 21.548C9.98561 21.4395 10.0465 21.2925 10.0465 21.1392V14.3898C10.0465 14.2365 9.98561 14.0895 9.87727 13.981C9.76893 13.8726 9.62197 13.8116 9.46867 13.8114H2.72047V13.8114Z" fill="black" fill-opacity="0.45"/>
<path d="M2.48891 14.1579C2.5504 14.0963 2.63377 14.0616 2.72077 14.0614H9.46851C9.55551 14.0615 9.63892 14.0962 9.70041 14.1577C9.76192 14.2193 9.79647 14.3028 9.79647 14.3898V21.1392C9.79647 21.2262 9.76192 21.3097 9.70041 21.3713C9.63889 21.4329 9.55545 21.4675 9.46841 21.4676H2.72047C2.54011 21.4676 2.39267 21.3205 2.39267 21.1392V14.39C2.39279 14.3029 2.4274 14.2195 2.48891 14.1579ZM2.72047 22.4998H9.46867C10.2189 22.4998 10.8287 21.8891 10.8287 21.1392V14.3898C10.8287 13.6392 10.2188 13.0292 9.46867 13.0292H2.72047C1.97031 13.0292 1.36047 13.6392 1.36047 14.3898V21.1398C1.36047 21.8899 1.9704 22.4998 2.72047 22.4998Z" stroke="black" stroke-opacity="0.45" stroke-width="0.5"/>
<path d="M21.2814 22.2498H14.5314C13.9194 22.2498 13.422 21.7518 13.422 21.1398V14.3898C13.422 13.7772 13.9194 13.2792 14.5314 13.2792H21.2814C21.8922 13.2792 22.3896 13.7772 22.3896 14.3898V21.1392C22.3895 21.4333 22.2727 21.7153 22.065 21.9235C21.8573 22.1317 21.5755 22.249 21.2814 22.2498ZM14.5314 13.8114C14.3781 13.8117 14.2313 13.8728 14.123 13.9812C14.0147 14.0896 13.9538 14.2366 13.9536 14.3898V21.1392C13.9536 21.4584 14.2128 21.7176 14.5314 21.7176H21.2814C21.5994 21.7176 21.8574 21.4584 21.8574 21.1392V14.3898C21.8576 14.314 21.8428 14.2389 21.8139 14.1688C21.7851 14.0987 21.7427 14.035 21.6892 13.9813C21.6357 13.9276 21.5722 13.885 21.5022 13.8558C21.4322 13.8266 21.3572 13.8116 21.2814 13.8114H14.5314V13.8114Z" fill="black" fill-opacity="0.45"/>
<path d="M21.2814 22.4998L21.2821 22.4998C21.6423 22.4988 21.9875 22.3551 22.242 22.1001C22.4964 21.8451 22.6394 21.4996 22.6396 21.1393V21.1392V14.3898C22.6396 13.6396 22.0307 13.0292 21.2814 13.0292H14.5314C13.7811 13.0292 13.172 13.6394 13.172 14.3898V21.1398C13.172 21.8897 13.7812 22.4998 14.5314 22.4998L21.2814 22.4998ZM21.6074 14.3893V14.3898V21.1392C21.6074 21.3213 21.4603 21.4676 21.2814 21.4676H14.5314C14.351 21.4676 14.2036 21.3205 14.2036 21.1392V14.39C14.2037 14.3029 14.2383 14.2195 14.2998 14.1579C14.3613 14.0963 14.4447 14.0616 14.5317 14.0614H21.2811C21.324 14.0615 21.3665 14.0701 21.4061 14.0866C21.4457 14.1031 21.4817 14.1273 21.5121 14.1577C21.5424 14.1882 21.5664 14.2243 21.5828 14.264C21.5991 14.3038 21.6075 14.3463 21.6074 14.3893Z" stroke="black" stroke-opacity="0.45" stroke-width="0.5"/>
</svg>
